<?xml version="1.0" standalone="no"?>
<!DOCTYPE svg PUBLIC "-//W3C//DTD SVG 20010904//EN"
 "http://www.w3.org/TR/2001/REC-SVG-20010904/DTD/svg10.dtd">
<svg version="1.0" xmlns="http://www.w3.org/2000/svg"
 width="500.000000pt" height="500.000000pt" viewBox="0 0 500.000000 500.000000"
 preserveAspectRatio="xMidYMid meet">

<g transform="translate(0.000000,500.000000) scale(0.100000,-0.100000)"
fill="#000000" stroke="none">
<path d="M2300 4509 c-211 -19 -453 -86 -648 -179 -145 -69 -244 -128 -237
-140 3 -5 0 -12 -6 -16 -8 -5 -9 -3 -4 6 5 8 3 11 -6 8 -8 -3 -14 -10 -14 -16
0 -5 -4 -14 -9 -19 -5 -5 -6 -2 -1 6 5 9 4 12 -4 10 -7 -3 -13 -9 -13 -14 0
-14 -19 -35 -31 -35 -6 0 -2 7 9 16 10 8 14 14 7 12 -22 -6 -134 -99 -129
-107 3 -5 -1 -14 -9 -21 -8 -7 -12 -16 -9 -21 3 -5 -2 -6 -11 -3 -14 6 -14 9
2 28 10 11 -1 3 -24 -18 -23 -22 -40 -42 -38 -46 5 -8 -79 -92 -86 -85 -3 2
-19 -10 -35 -27 -16 -18 -19 -24 -6 -14 12 11 22 16 22 12 0 -13 -83 -106 -90
-101 -4 3 -14 -3 -21 -12 -8 -9 -9 -14 -3 -10 12 7 29 -21 19 -31 -3 -3 -5 0
-5 5 0 20 -31 7 -55 -23 -26 -31 -32 -50 -13 -38 7 4 8 3 4 -5 -4 -6 -11 -9
-16 -6 -12 8 -33 -33 -24 -47 4 -6 3 -8 -4 -4 -14 8 -78 -100 -142 -243 -311
-690 -198 -1521 285 -2100 88 -105 255 -266 356 -343 359 -274 849 -427 1294
-404 306 16 532 72 792 196 331 158 624 418 829 735 161 251 268 559 305 879
15 126 6 421 -15 541 -37 206 -98 396 -138 431 -21 19 -21 19 -15 -7 4 -15 9
-73 12 -130 l5 -104 -20 45 c-12 24 -26 51 -33 59 -10 12 -13 9 -17 -14 -4
-25 -10 -17 -39 60 -81 216 -208 423 -341 558 -71 70 -93 87 -117 87 -16 0
-32 -3 -36 -6 -10 -10 17 -65 92 -189 188 -306 277 -538 317 -822 23 -164 15
-485 -16 -628 -70 -327 -211 -586 -455 -831 -83 -84 -169 -159 -238 -207 -440
-309 -1019 -404 -1492 -246 -260 87 -473 221 -705 444 -125 120 -131 123 -55
30 66 -81 72 -90 57 -81 -36 21 14 -38 84 -101 298 -268 652 -414 1109 -457
22 -2 -10 -2 -71 0 -555 19 -1088 322 -1411 804 -214 318 -306 753 -248 1170
9 61 13 116 9 122 -5 7 -3 8 6 3 10 -6 11 1 6 31 -5 30 -4 35 4 24 9 -11 10
-7 5 20 -4 25 -3 31 4 20 7 -10 9 4 6 45 -3 55 -2 58 11 35 l15 -25 -7 25 c-4
14 -9 32 -12 40 -3 9 2 7 12 -5 16 -19 16 -19 6 8 -8 23 -4 44 24 116 35 90
73 171 81 171 2 0 -9 -30 -25 -66 -23 -50 -27 -70 -20 -82 9 -14 10 -12 4 7
-4 16 -3 21 5 17 7 -5 8 -1 4 10 -4 12 -3 15 5 10 8 -5 10 -1 5 10 -4 12 -3
15 5 10 8 -5 10 -1 5 10 -4 12 -3 15 5 10 8 -5 10 -1 5 10 -4 12 -3 15 5 10 8
-5 10 -1 5 10 -4 11 -3 15 4 11 7 -4 24 15 41 45 99 176 298 387 483 510 133
90 346 200 474 247 193 70 363 104 663 131 112 10 206 20 209 23 2 3 -6 11
-19 18 -32 19 -251 24 -395 10 -383 -38 -717 -166 -998 -385 -33 -25 -107 -92
-164 -149 -89 -87 -96 -92 -45 -33 122 141 314 292 505 396 169 93 206 104
558 177 159 33 191 36 336 36 160 0 201 -5 432 -54 51 -10 102 -19 114 -19 18
0 19 2 9 15 -45 54 477 -190 695 -324 94 -58 88 -56 77 -34 -21 39 -191 192
-279 251 -301 202 -620 312 -997 342 -144 11 -189 11 -326 -1z m-170 -149 c11
-8 7 -9 -14 -4 -18 4 -27 3 -23 -3 4 -6 -18 -15 -51 -23 -31 -7 -95 -26 -142
-42 -83 -30 -114 -38 -157 -41 -11 -1 -19 -5 -17 -9 5 -7 -31 -21 -56 -22 -30
-2 -161 -76 -154 -88 4 -6 3 -8 -3 -5 -12 8 -149 -60 -201 -99 -132 -100 -351
-352 -450 -516 -291 -482 -349 -1069 -162 -1630 68 -204 196 -437 338 -617
129 -163 347 -350 519 -447 46 -25 83 -51 83 -56 0 -5 5 -6 12 -2 7 4 8 3 4
-4 -9 -16 -57 4 -159 66 -200 120 -442 342 -567 519 -226 321 -329 629 -347
1043 -4 79 -10 138 -17 142 -6 4 -12 42 -14 84 -11 214 86 577 224 832 25 46
42 88 38 94 -4 7 -3 8 4 4 13 -8 36 30 27 44 -4 6 -1 9 6 8 6 -2 14 3 17 11 3
9 0 11 -8 6 -9 -5 -11 -4 -6 4 4 6 11 9 15 7 4 -3 18 8 29 24 25 33 28 45 10
34 -8 -4 -10 -3 -5 2 5 5 14 9 20 9 7 0 11 8 11 17 -1 9 12 32 28 50 l30 33
-26 -37 c-38 -53 -26 -47 20 10 21 26 31 41 21 33 -9 -7 -17 -9 -17 -5 0 5 39
48 87 94 l88 85 -75 -77 c-41 -43 -72 -78 -70 -78 3 0 44 39 90 87 47 48 76
80 65 72 -18 -13 -19 -13 -6 3 7 10 17 15 22 13 9 -6 134 91 134 105 0 4 4 12
9 17 5 5 6 3 2 -4 -10 -19 2 -16 35 8 16 11 26 25 23 31 -4 7 -2 8 4 4 6 -4
29 4 50 18 52 33 218 115 264 132 27 9 45 10 61 3 19 -8 18 -9 -8 -4 -23 4
-27 3 -15 -5 12 -9 11 -10 -5 -6 -26 7 -54 -8 -32 -17 8 -3 48 7 89 23 62 24
161 53 253 73 35 8 60 7 75 -3z m-330 -40 c-12 -8 -12 -10 -1 -10 8 0 12 -2 9
-5 -3 -3 -13 -2 -22 1 -14 5 -15 9 -4 15 7 5 18 9 23 9 6 0 3 -5 -5 -10z
m-484 -208 c-6 -11 -96 -74 -96 -68 0 5 90 76 97 76 2 0 2 -3 -1 -8z m-16 -36
c0 -2 -8 -10 -17 -17 -16 -13 -17 -12 -4 4 13 16 21 21 21 13z m-60 -51 c-13
-14 -27 -25 -32 -25 -9 0 42 49 51 50 3 0 -6 -11 -19 -25z m-70 -28 c0 -2 -10
-12 -22 -23 l-23 -19 19 23 c18 21 26 27 26 19z m-280 -316 c-5 -11 -15 -23
-21 -27 -6 -3 -3 5 6 20 20 30 30 35 15 7z m10 -25 c0 -2 -8 -10 -17 -17 -16
-13 -17 -12 -4 4 13 16 21 21 21 13z m220 -9 c0 -2 -10 -12 -22 -23 l-23 -19
19 23 c18 21 26 27 26 19z m-140 -257 c-6 -11 -13 -20 -16 -20 -2 0 0 9 6 20
6 11 13 20 16 20 2 0 0 -9 -6 -20z m-30 -10 c-6 -11 -13 -20 -16 -20 -2 0 0 9
6 20 6 11 13 20 16 20 2 0 0 -9 -6 -20z m-2 -45 c-6 -14 -13 -23 -15 -21 -5 5
15 46 22 46 3 0 -1 -11 -7 -25z"/>
<path d="M939 3773 c-13 -16 -12 -17 4 -4 9 7 17 15 17 17 0 8 -8 3 -21 -13z"/>
<path d="M836 3144 c-4 -9 -4 -19 -1 -22 3 -3 5 0 5 7 0 7 4 9 10 6 6 -3 7 1
4 9 -8 20 -10 20 -18 0z"/>
<path d="M810 3075 c0 -5 5 -17 10 -25 5 -8 10 -10 10 -5 0 6 -5 17 -10 25 -5
8 -10 11 -10 5z"/>
</g>
</svg>
